<svg xmlns="http://www.w3.org/2000/svg" width="71.555" height="71.555" viewBox="0 0 71.555 71.555">
  <path id="hp" d="M728.205,146.12c-.356,0-.71-.007-1.064-.017l7.312-20.095h10.062a4.931,4.931,0,0,0,4.309-3.016l7.933-21.789c1.3-3.567-.746-6.486-4.541-6.486h-13.96L726.543,126.9h-.005l-6.64,18.245a35.787,35.787,0,0,1-1.353-69.263l-6.852,18.832h0L700.3,126.008h7.583l9.687-26.59h5.7l-9.687,26.59h7.58l9.027-24.807c1.3-3.567-.745-6.486-4.537-6.486h-6.374L726.6,74.6c.533-.023,1.069-.037,1.608-.037a35.777,35.777,0,0,1,0,71.555M749.852,99.4h-5.7l-7.978,21.89h5.7Z" transform="translate(-692.427 -74.565)" fill="#0096d6"/>
</svg>
