<svg xmlns="http://www.w3.org/2000/svg" width="140.538" height="33.146" viewBox="0 0 140.538 33.146">
  <g id="mitel" transform="translate(-15.1 -253.4)">
    <g id="Group_18" data-name="Group 18" transform="translate(15.1 253.4)">
      <path id="Path_37" data-name="Path 37" d="M83.286,294.233l-3.74-2.163-1.172-.676a1.9,1.9,0,0,1,0-3.019l1.172-.676-3.74-2.163a5.742,5.742,0,0,0,0,8.72,4.371,4.371,0,0,0,.653.473l3.087,1.78,10.32,5.971a5.729,5.729,0,0,0,8.63-4.957V282.246a5.747,5.747,0,0,0-8.653-4.957l-10.32,5.971,3.087,1.78a6.9,6.9,0,0,1,.653.473l8.495-4.935a1.851,1.851,0,0,1,.969-.27,1.914,1.914,0,0,1,1.915,1.915V297.5a1.914,1.914,0,0,1-1.915,1.915,1.794,1.794,0,0,1-.969-.27l-8.472-4.912" transform="translate(-60.573 -271.295)" fill="#159fda"/>
      <path id="Path_38" data-name="Path 38" d="M431.653,291.264V280.02h5.363v-3.7h-5.363V271.3H427.8v19.987c0,5.994,3.808,9.238,9.284,8.608v-3.56c-2.907.158-5.43-.9-5.43-5.07" transform="translate(-334.807 -267.267)" fill="#00447c"/>
      <path id="Path_39" data-name="Path 39" d="M390.043,260.9a2.343,2.343,0,1,0,2.343,2.343,2.342,2.342,0,0,0-2.343-2.343" transform="translate(-303.742 -259.21)" fill="#159fda"/>
      <path id="Path_40" data-name="Path 40" d="M598.643,279.006V254.4H594.7v24.628a7.847,7.847,0,0,0,7.841,7.841v-3.943a3.933,3.933,0,0,1-3.9-3.921" transform="translate(-464.099 -254.175)" fill="#00447c"/>
      <path id="Path_41" data-name="Path 41" d="M261.136,262.6l-9.419,22.713L242.366,262.6H236.8v30.194h3.921V267.94l10.23,24.854h1.555L262.78,267.94v24.854h3.853V262.6Z" transform="translate(-186.845 -260.527)" fill="#00447c"/>
      <path id="Path_42" data-name="Path 42" d="M34.073,287.7l1.172.676a1.934,1.934,0,0,1,.744,1.51,1.9,1.9,0,0,1-.744,1.51l-1.172.676,3.74,2.163a5.742,5.742,0,0,0,0-8.72,4.373,4.373,0,0,0-.653-.473l-3.087-1.78-10.32-5.971a5.747,5.747,0,0,0-8.653,4.957v15.277a5.729,5.729,0,0,0,8.63,4.957l10.32-5.971-3.087-1.78a6.9,6.9,0,0,1-.653-.473l-8.495,4.89a2.014,2.014,0,0,1-.969.27,1.914,1.914,0,0,1-1.915-1.915V282.223a1.914,1.914,0,0,1,1.915-1.915,1.946,1.946,0,0,1,.969.27l8.495,4.935h0Z" transform="translate(-15.1 -271.295)" fill="#00447c"/>
      <path id="Path_43" data-name="Path 43" d="M621.508,253.4a2.174,2.174,0,1,1,0,4.349,2.175,2.175,0,1,1,0-4.349m0,4.056a1.86,1.86,0,1,0-1.8-1.87,1.81,1.81,0,0,0,1.8,1.87m-.856-3.132h.991c.608,0,.9.248.9.721s-.293.653-.676.7l.721,1.127h-.428l-.7-1.1h-.428v1.1h-.406v-2.546Zm.406,1.127h.406c.361,0,.676-.023.676-.428,0-.338-.293-.383-.563-.383h-.518Z" transform="translate(-483.156 -253.4)" fill="#00447c"/>
      <rect id="Rectangle_9" data-name="Rectangle 9" width="3.898" height="23.592" transform="translate(84.363 8.698)" fill="#00447c"/>
      <path id="Path_44" data-name="Path 44" d="M487.378,312.081a8.254,8.254,0,0,1-8.134-7.774H499.05c.045-8.382-5.814-13.407-11.9-13.407-6.535,0-11.852,5.588-11.852,12.393a12.058,12.058,0,0,0,12.078,12.3c5.453,0,9.464-2.839,11.109-7.864h-4.1a7.272,7.272,0,0,1-7.008,4.349m-.27-17.666a8.12,8.12,0,0,1,7.594,6.4H479.424a8.213,8.213,0,0,1,7.684-6.4" transform="translate(-371.604 -282.45)" fill="#00447c"/>
    </g>
  </g>
</svg>
